<svg xmlns="http://www.w3.org/2000/svg" width="84.722" height="84.719" viewBox="0 0 84.722 84.719">
  <g id="그룹_390" data-name="그룹 390" transform="translate(0.5 0.5)">
    <g id="speech-bubble" transform="translate(0 0)">
      <path id="패스_80" data-name="패스 80" d="M78.344,60.977A24.537,24.537,0,0,1,73.1,56.112,31.345,31.345,0,0,0,83.722,32.927,31.134,31.134,0,0,0,72.9,9.554,38.556,38.556,0,0,0,47.123.009,38.556,38.556,0,0,0,21.346,9.554,31.134,31.134,0,0,0,10.525,32.927a30.244,30.244,0,0,0,.179,3.291A24.45,24.45,0,0,0,0,56.076,24.035,24.035,0,0,0,7.73,73.51a17.589,17.589,0,0,1-2.79,2.614,4.09,4.09,0,0,0,1.807,7.3,22.409,22.409,0,0,0,3.674.305,19.78,19.78,0,0,0,10.855-3.11,31.041,31.041,0,0,0,6.767.743c11.885,0,22.066-6.7,26.142-16.132q1.072-.189,2.13-.433A25.728,25.728,0,0,0,70.7,69a28.852,28.852,0,0,0,6.172-.67,4.089,4.089,0,0,0,1.476-7.347ZM56.2,59.771a35.576,35.576,0,0,1-9.074,1.168c-17.476,0-31.693-12.566-31.693-28.012S29.648,4.915,47.123,4.915,78.816,17.481,78.816,32.927A26.736,26.736,0,0,1,68.3,53.76a2.453,2.453,0,0,0-.569,3.2A26.7,26.7,0,0,0,74,63.86a21.2,21.2,0,0,1-15.693-3.67,2.454,2.454,0,0,0-2.111-.419ZM21.4,75.6a2.453,2.453,0,0,0-2.111.419,14.832,14.832,0,0,1-9.877,2.775,19.518,19.518,0,0,0,3.712-4.39,2.453,2.453,0,0,0-.569-3.2,19.427,19.427,0,0,1-7.65-15.133A19.206,19.206,0,0,1,11.8,41.581,32.146,32.146,0,0,0,21.346,56.3a38.555,38.555,0,0,0,25.778,9.545q.618,0,1.234-.019c-3.931,6.328-11.562,10.63-20.314,10.63A26.059,26.059,0,0,1,21.4,75.6Z" transform="translate(0 -0.009)" fill="#999" stroke="#f9f9f9" stroke-width="1"/>
      <path id="패스_81" data-name="패스 81" d="M227.15,130.221a2.453,2.453,0,0,0,2.453-2.453V121.6a2.453,2.453,0,1,0-4.906,0v6.165A2.453,2.453,0,0,0,227.15,130.221Z" transform="translate(-187.955 -99.669)" fill="#999" stroke="#f9f9f9" stroke-width="1"/>
      <path id="패스_82" data-name="패스 82" d="M317.631,130.692a2.453,2.453,0,0,0,2.453-2.453v-6.165a2.453,2.453,0,1,0-4.906,0v6.165A2.453,2.453,0,0,0,317.631,130.692Z" transform="translate(-263.64 -100.063)" fill="#999" stroke="#f9f9f9" stroke-width="1"/>
      <path id="패스_83" data-name="패스 83" d="M199.022,184.28a2.453,2.453,0,0,0-4.906,0c0,7.316-7.473,13.267-16.658,13.267S160.8,191.6,160.8,184.28a2.453,2.453,0,0,0-4.906,0,16.773,16.773,0,0,0,6.492,13.01,24.58,24.58,0,0,0,30.143,0A16.773,16.773,0,0,0,199.022,184.28Z" transform="translate(-130.403 -152.096)" fill="#999" stroke="#f9f9f9" stroke-width="1"/>
    </g>
  </g>
</svg>
