<svg id="transport" xmlns="http://www.w3.org/2000/svg" width="101.619" height="65.1" viewBox="0 0 101.619 65.1">
  <path id="패스_55" data-name="패스 55" d="M79.939,343.176a1.588,1.588,0,0,0-1.588,1.588,1.588,1.588,0,1,1-1.588-1.588,1.588,1.588,0,1,0,0-3.176,4.763,4.763,0,1,0,4.763,4.763A1.588,1.588,0,0,0,79.939,343.176Z" transform="translate(-57.71 -290.778)" fill="#999"/>
  <path id="패스_56" data-name="패스 56" d="M399.939,343.176a1.588,1.588,0,0,0-1.588,1.588,1.588,1.588,0,1,1-1.588-1.588,1.588,1.588,0,1,0,0-3.176,4.763,4.763,0,1,0,4.763,4.763A1.588,1.588,0,0,0,399.939,343.176Z" transform="translate(-314.198 -290.778)" fill="#999"/>
  <path id="패스_57" data-name="패스 57" d="M101.619,123.756a1.583,1.583,0,0,0-.474-1.131,7.9,7.9,0,0,0-3.915-4.382,1.567,1.567,0,0,0-.152-.066l-5.247-1.97-3.2-12.146c0-.017-.009-.035-.015-.052a7.89,7.89,0,0,0-7.6-5.658H69.863V95.176A3.179,3.179,0,0,0,66.687,92H3.176A3.179,3.179,0,0,0,0,95.176v44.458a3.179,3.179,0,0,0,3.176,3.176H8.4a11.02,11.02,0,0,0-.35,1.588H1.588a1.588,1.588,0,1,0,0,3.176H8.054a11.113,11.113,0,0,0,22,0h3.291a4.769,4.769,0,0,0,4.763,4.763h9.527a4.769,4.769,0,0,0,4.763-4.763H71.566a11.113,11.113,0,0,0,22,0h6.466a1.588,1.588,0,1,0,0-3.176H93.565a11.019,11.019,0,0,0-.349-1.588h5.228a3.179,3.179,0,0,0,3.176-3.176v-14.29a8.053,8.053,0,0,0-.076-1.1A1.584,1.584,0,0,0,101.619,123.756Zm-3.176,9.527H96.856v-1.588h1.588Zm-1.211-11.115H69.863v-3.176H90.216l5.663,2.126A4.777,4.777,0,0,1,97.232,122.168ZM81.015,101.527a4.734,4.734,0,0,1,4.555,3.37l2.874,10.92H69.863v-14.29ZM9.527,139.634H3.176v-7.939H52.4a1.588,1.588,0,1,0,0-3.176H3.176V95.176H66.687v44.458H28.581a1.592,1.592,0,0,0-.38.048,11.1,11.1,0,0,0-18.294,0A1.587,1.587,0,0,0,9.527,139.634Zm9.527,14.29a7.939,7.939,0,1,1,7.939-7.939A7.948,7.948,0,0,1,19.054,153.924Zm11-9.527a11.02,11.02,0,0,0-.35-1.588h3.914a4.741,4.741,0,0,0-.273,1.588Zm19.169,3.176a1.59,1.59,0,0,1-1.588,1.588H38.107a1.59,1.59,0,0,1-1.588-1.588v-1.584s0,0,0,0,0,0,0,0V144.4a1.59,1.59,0,0,1,1.588-1.588h9.527a1.59,1.59,0,0,1,1.588,1.588Zm2.9-4.763H71.915a11.02,11.02,0,0,0-.35,1.588H52.4A4.741,4.741,0,0,0,52.124,142.809Zm30.441,11.115a7.939,7.939,0,1,1,7.939-7.939A7.948,7.948,0,0,1,82.565,153.924Zm9.527-14.29a1.588,1.588,0,0,0-.38.048,11.1,11.1,0,0,0-18.294,0,1.587,1.587,0,0,0-.379-.048H69.863v-14.29h28.58v3.176H96.856a3.179,3.179,0,0,0-3.176,3.176v1.588a3.179,3.179,0,0,0,3.176,3.176h1.588v3.176Z" transform="translate(0 -92)" fill="#999"/>
  <path id="패스_58" data-name="패스 58" d="M193.588,356a1.586,1.586,0,1,0,1.123.464A1.605,1.605,0,0,0,193.588,356Z" transform="translate(-153.893 -303.603)" fill="#999"/>
  <path id="패스_59" data-name="패스 59" d="M289.592,279.176h3.175a1.588,1.588,0,0,0,0-3.176h-3.175a1.588,1.588,0,1,0,0,3.176Z" transform="translate(-230.843 -239.481)" fill="#999"/>
</svg>
