<svg id="그룹_388" data-name="그룹 388" xmlns="http://www.w3.org/2000/svg" width="67.458" height="93.855" viewBox="0 0 67.458 93.855">
  <path id="패스_72" data-name="패스 72" d="M151.621,159.536a1.383,1.383,0,0,0,1.984-.082l6.609-7.5a1.375,1.375,0,1,0-2.063-1.818l-5.66,6.425-3.609-3.471a1.375,1.375,0,1,0-1.906,1.982Z" transform="translate(-132.889 -122.232)" fill="#999"/>
  <path id="패스_73" data-name="패스 73" d="M239.376,172.882h19.431a1.375,1.375,0,1,0,0-2.75H239.376a1.375,1.375,0,0,0,0,2.75Z" transform="translate(-207.572 -138.945)" fill="#999"/>
  <path id="패스_74" data-name="패스 74" d="M146.976,243.384l4.645,4.466a1.383,1.383,0,0,0,1.983-.08l6.619-7.484a1.375,1.375,0,0,0-2.06-1.822l-5.67,6.41-3.611-3.472a1.375,1.375,0,0,0-1.906,1.982Z" transform="translate(-132.888 -194.372)" fill="#999"/>
  <path id="패스_75" data-name="패스 75" d="M239.376,260.751h19.431a1.375,1.375,0,1,0,0-2.75H239.376a1.375,1.375,0,0,0,0,2.75Z" transform="translate(-207.572 -210.707)" fill="#999"/>
  <path id="패스_76" data-name="패스 76" d="M331.084,349.132h-3.208a1.375,1.375,0,0,0,0,2.75h3.208a1.375,1.375,0,0,0,0-2.75Z" transform="translate(-279.849 -285.133)" fill="#999"/>
  <path id="패스_77" data-name="패스 77" d="M239.376,351.882h9.807a1.375,1.375,0,0,0,0-2.75h-9.807a1.375,1.375,0,0,0,0,2.75Z" transform="translate(-207.572 -285.133)" fill="#999"/>
  <path id="패스_78" data-name="패스 78" d="M154.376,337.314h8.432a1.375,1.375,0,0,0,1.375-1.375v-8.432a1.375,1.375,0,0,0-1.375-1.375h-8.432A1.375,1.375,0,0,0,153,327.507v8.432A1.375,1.375,0,0,0,154.376,337.314Zm1.375-8.432h5.683v5.683h-5.683Z" transform="translate(-138.153 -266.349)" fill="#999"/>
  <path id="패스_79" data-name="패스 79" d="M138.084,44.453a1.375,1.375,0,0,0,1.375-1.375v-32.9a3.212,3.212,0,0,0-3.208-3.208l-23.476,0a7.071,7.071,0,0,0-2.239-5.068,6.986,6.986,0,0,0-5.3-1.877,7.089,7.089,0,0,0-6.549,6.945l-23.476,0A3.212,3.212,0,0,0,72,10.174V90.647a3.212,3.212,0,0,0,3.208,3.208h61.042a3.212,3.212,0,0,0,3.208-3.208V49.494a1.375,1.375,0,0,0-2.75,0V90.647a.459.459,0,0,1-.458.458H75.209a.459.459,0,0,1-.458-.458V10.174a.459.459,0,0,1,.458-.458H88.657v2.75H78.875A1.375,1.375,0,0,0,77.5,13.84V86.98a1.375,1.375,0,0,0,1.375,1.375h6.141a1.375,1.375,0,0,0,0-2.75H80.25V15.215h8.407v3.1a2.294,2.294,0,0,0,2.291,2.291h18.564a1.375,1.375,0,0,0,0-2.75H91.406V9.716h8.8a1.381,1.381,0,0,0,1.339-1.69,4.3,4.3,0,1,1,8.368,0,1.384,1.384,0,0,0,1.339,1.686l8.8,0v8.144h-4.126a1.375,1.375,0,0,0,0,2.75h4.584a2.294,2.294,0,0,0,2.291-2.291v-3.1h8.407V70.941H117.92a1.375,1.375,0,0,0-1.375,1.375v13.29H91.432a1.375,1.375,0,0,0,0,2.75H117.92a1.39,1.39,0,0,0,.972-.4l14.665-14.665a1.392,1.392,0,0,0,.4-.972V13.84a1.375,1.375,0,0,0-1.375-1.375H122.8V9.716h13.448a.459.459,0,0,1,.458.458v32.9a1.375,1.375,0,0,0,1.375,1.375ZM119.295,83.661V73.691h9.971Z" transform="translate(-72.001 0)" fill="#999"/>
</svg>
