<svg id="그룹_387" data-name="그룹 387" xmlns="http://www.w3.org/2000/svg" width="71.954" height="93.853" viewBox="0 0 71.954 93.853">
  <path id="패스_48" data-name="패스 48" d="M143.721,57.107l-6.649-26.6a9.639,9.639,0,0,0,2.19-6.688c0-4.458-2.017-7.821-4.693-7.821H78.257c-2.675,0-4.693,3.363-4.693,7.821s2.017,7.821,4.693,7.821H78.6L72.233,57.107A7.832,7.832,0,0,0,72,59v49.285a1.564,1.564,0,0,0,1.564,1.564H142.39a1.564,1.564,0,0,0,1.564-1.564V59a7.829,7.829,0,0,0-.233-1.9ZM140.826,59v45.508l-4.693-4.693V61.362a1.564,1.564,0,0,0-3.128,0V99.82l-4.693,4.693V59a4.7,4.7,0,0,1,.14-1.137L134.569,33.4l6.117,24.467A4.7,4.7,0,0,1,140.826,59Zm-6.257,43.676,4.045,4.045h-8.089Zm1.564-78.859c0,3.028-1.175,4.693-1.564,4.693S133,26.849,133,23.821s1.175-4.693,1.564-4.693S136.133,20.793,136.133,23.821Zm-59.44,0c0-3.183,1.255-4.693,1.564-4.693h52.507a11.857,11.857,0,0,0-.888,4.693,11.857,11.857,0,0,0,.888,4.693H78.257C77.947,28.514,76.693,27,76.693,23.821ZM75.128,59a4.691,4.691,0,0,1,.14-1.138l6.556-26.224h49.959l-6.367,25.466a7.836,7.836,0,0,0-.233,1.9v47.721H75.128Z" transform="translate(-72 -16)" fill="#999"/>
  <path id="패스_49" data-name="패스 49" d="M150.078,224a1.564,1.564,0,0,0-1.564,1.564v4.693h-3.128v-4.693a1.564,1.564,0,0,0-3.128,0v4.693h-3.128v-4.693a1.564,1.564,0,0,0-3.128,0v6.257h0a1.56,1.56,0,0,0,.162.7l2.944,5.887-1.3,24.379a4.693,4.693,0,0,0,4.682,5.011h2.665a4.693,4.693,0,0,0,4.682-5.011l-1.3-24.379,2.943-5.887a1.56,1.56,0,0,0,.162-.7h0v-6.257A1.564,1.564,0,0,0,150.078,224Zm-2.531,9.385-1.564,3.128h-4.323l-1.564-3.128ZM146.3,264.172a1.548,1.548,0,0,1-1.145.5h-2.665a1.564,1.564,0,0,1-1.56-1.676l0-.028,1.246-23.324h3.291l1.246,23.324,0,.028A1.548,1.548,0,0,1,146.3,264.172Z" transform="translate(-123.486 -183.33)" fill="#999"/>
  <path id="패스_50" data-name="패스 50" d="M237.729,262.668l-1.215-18.384V225.564A1.564,1.564,0,0,0,234.949,224c-9.554,0-10.893,16.392-10.945,17.089a1.564,1.564,0,0,0,.86,1.516l2.264,1.132v.546l-1.215,18.384a4.693,4.693,0,0,0,4.672,5.131h2.471a4.693,4.693,0,0,0,4.673-5.131Zm-9.053-28.831c1.2-3.537,2.782-5.689,4.709-6.424v15.357h-3.129a1.564,1.564,0,0,0-.865-1.4l-2.157-1.078a34.375,34.375,0,0,1,1.44-6.456Zm5.541,30.318a1.547,1.547,0,0,1-1.16.515h-2.471a1.564,1.564,0,0,1-1.556-1.721c0-.018,0-.035,0-.052l1.124-17h3.329l1.124,17c0,.017,0,.035,0,.052a1.547,1.547,0,0,1-.4,1.205Z" transform="translate(-194.279 -183.33)" fill="#999"/>
</svg>
