<svg id="그룹_386" data-name="그룹 386" xmlns="http://www.w3.org/2000/svg" width="93.853" height="93.853" viewBox="0 0 93.853 93.853">
  <path id="패스_60" data-name="패스 60" d="M15.514,19.11H42.762A1.513,1.513,0,0,0,44.275,17.6V8.514A1.513,1.513,0,0,0,42.762,7H15.514A1.513,1.513,0,0,0,14,8.514V17.6A1.513,1.513,0,0,0,15.514,19.11Zm1.514-9.083h24.22v6.055H17.028Z" transform="translate(5.679 2.083)" fill="#999"/>
  <path id="패스_61" data-name="패스 61" d="M12.569,32.138A7.569,7.569,0,1,0,5,24.569,7.577,7.577,0,0,0,12.569,32.138Zm0-12.11a4.541,4.541,0,1,1-4.541,4.541A4.547,4.547,0,0,1,12.569,20.028Z" transform="translate(1.055 7.22)" fill="#999"/>
  <path id="패스_62" data-name="패스 62" d="M17,25H53.33v3.028H17Z" transform="translate(7.22 11.33)" fill="#999"/>
  <path id="패스_63" data-name="패스 63" d="M17,21H53.33v3.028H17Z" transform="translate(7.22 9.275)" fill="#999"/>
  <path id="패스_64" data-name="패스 64" d="M12.569,44.5a7.577,7.577,0,0,0,7.569-7.569,7.478,7.478,0,0,0-.728-3.186l3.312-3.312-2.14-2.14L17.575,31.3a7.555,7.555,0,1,0-5.006,13.2Zm0-12.11a4.5,4.5,0,0,1,2.867,1.049l-2.451,2.451-.575-1.149L9.7,36.1l1.514,3.028a1.515,1.515,0,0,0,1.111.817,1.646,1.646,0,0,0,.242.018,1.511,1.511,0,0,0,1.07-.444l3.389-3.389a4.536,4.536,0,1,1-4.46-3.736Z" transform="translate(1.055 13.022)" fill="#999"/>
  <path id="패스_65" data-name="패스 65" d="M17,33H50.3v3.028H17Z" transform="translate(7.22 15.44)" fill="#999"/>
  <path id="패스_66" data-name="패스 66" d="M17,37H44.248v3.028H17Z" transform="translate(7.22 17.496)" fill="#999"/>
  <path id="패스_67" data-name="패스 67" d="M94.853,35.558a5.794,5.794,0,0,0-9.892-4.1l-4.8,4.8-9.526,9.526V2.514A1.513,1.513,0,0,0,69.119,1H17.651a1.507,1.507,0,0,0-1.07.444L1.444,16.581A1.51,1.51,0,0,0,1,17.651V93.34a1.513,1.513,0,0,0,1.514,1.514H69.119a1.513,1.513,0,0,0,1.514-1.514V62.177L88.355,44.456,89.909,42.9a20.272,20.272,0,0,1-5.575,10.377l-7.2,7.2,2.14,2.14,7.2-7.2a23.265,23.265,0,0,0,6.835-15.952,5.737,5.737,0,0,0,1.544-3.909ZM87.1,33.6a2.768,2.768,0,0,1,4.724,1.959,2.752,2.752,0,0,1-.81,1.957l-3.731,3.73L83.37,37.33Zm-5.872,5.872.887.887L63.064,59.41l-.887-.887Zm-35.938,38.5,2.937-4.894,3.314,3.314-4.892,2.935Zm4.776-7.334,9.97-9.97,3.915,3.915-9.97,9.97ZM16.138,6.168v9.97H6.168ZM67.606,91.826H4.028V19.165H17.651a1.513,1.513,0,0,0,1.514-1.514V4.028h48.44V48.814l-8.639,8.639-12.11,12.11a1.431,1.431,0,0,0-.2.306l-.024-.015-4.541,7.569a1.516,1.516,0,0,0,.227,1.85l.444.444-3.471,3.471,2.14,2.14L44.9,81.856l.444.444a1.513,1.513,0,0,0,1.85.227l7.569-4.541-.015-.024a1.491,1.491,0,0,0,.306-.2l12.11-12.11.444-.444ZM66.092,62.438l-.887-.887L84.257,42.5l.887.887Z" transform="translate(-1 -1)" fill="#999"/>
  <path id="패스_68" data-name="패스 68" d="M5,55H35.275v3.028H5Z" transform="translate(1.055 26.743)" fill="#999"/>
  <path id="패스_69" data-name="패스 69" d="M5,51H35.275v3.028H5Z" transform="translate(1.055 24.688)" fill="#999"/>
  <path id="패스_70" data-name="패스 70" d="M5,47H35.275v3.028H5Z" transform="translate(1.055 22.633)" fill="#999"/>
  <path id="패스_71" data-name="패스 71" d="M5,43H20.138v3.028H5Z" transform="translate(1.055 20.578)" fill="#999"/>
</svg>
