<svg id="그룹_389" data-name="그룹 389" xmlns="http://www.w3.org/2000/svg" width="101.836" height="71.646" viewBox="0 0 101.836 71.646">
  <g id="plate" transform="translate(0 0)">
    <path id="패스_51" data-name="패스 51" d="M4.772,36.324V77.145a3.978,3.978,0,0,0,7.956,0V36.324A6.357,6.357,0,0,0,17.5,30.186v-19.1a1.591,1.591,0,1,0-3.182,0V23.818H12.728V11.089a1.591,1.591,0,1,0-3.182,0V23.818H7.955V11.089a1.591,1.591,0,1,0-3.182,0V23.818H3.181V11.089a1.591,1.591,0,1,0-3.182,0v19.1a6.357,6.357,0,0,0,4.773,6.139ZM9.546,77.147a.8.8,0,1,1-1.591,0V36.55H9.546ZM3.181,27H14.319v3.185a3.185,3.185,0,0,1-3.182,3.182H6.364a3.185,3.185,0,0,1-3.182-3.182Z" transform="translate(0.001 -9.479)" fill="#999"/>
    <path id="패스_52" data-name="패스 52" d="M57.589,9.488A1.59,1.59,0,0,0,56,11.079c0,.01,0,.016,0,.024v66.05a3.978,3.978,0,0,0,7.956,0V49.3h3.182a1.59,1.59,0,0,0,1.591-1.591V20.629A11.155,11.155,0,0,0,57.589,9.488Zm3.187,67.665a.8.8,0,0,1-1.591,0V49.3h1.591ZM65.55,46.116H59.185V12.833a7.974,7.974,0,0,1,6.365,7.8Z" transform="translate(33.104 -9.485)" fill="#999"/>
    <path id="패스_53" data-name="패스 53" d="M45.8,9.486a35.8,35.8,0,1,0,35.8,35.8A35.842,35.842,0,0,0,45.8,9.486Zm0,68.419A32.618,32.618,0,1,1,78.418,45.286,32.655,32.655,0,0,1,45.8,77.9Z" transform="translate(5.912 -9.486)" fill="#999"/>
    <path id="패스_54" data-name="패스 54" d="M41.662,16.486A24.663,24.663,0,1,0,66.324,41.149,24.69,24.69,0,0,0,41.662,16.486Zm0,46.143a21.48,21.48,0,1,1,21.48-21.48A21.5,21.5,0,0,1,41.662,62.629Z" transform="translate(10.05 -5.348)" fill="#999"/>
  </g>
</svg>
