<svg xmlns="http://www.w3.org/2000/svg" width="27.826" height="12.407" viewBox="0 0 27.826 12.407">
  <g id="그룹_367" data-name="그룹 367" transform="translate(17764.906 11874.862)">
    <path id="패스_66" data-name="패스 66" d="M20298.928,14404.482a2.867,2.867,0,0,1-1.205-.232,1.238,1.238,0,0,1-.355-.23l-.285,0v.3H20295V14395h2.082v2.84l.006,0a2.192,2.192,0,0,1,.494-.3,3.294,3.294,0,0,1,2.615-.062,3.569,3.569,0,0,1,1.258.814,3.381,3.381,0,0,1,.738,1.137,4.356,4.356,0,0,1,.273,1.648,3.679,3.679,0,0,1-.359,1.605,2.966,2.966,0,0,1-.861,1.045,3.865,3.865,0,0,1-2.248.754Zm.008-5.547a1.9,1.9,0,1,0,1.9,1.9A1.9,1.9,0,0,0,20298.936,14398.936Z" transform="translate(-38059.906 -26269.689)" fill="#777"/>
    <path id="패스_65" data-name="패스 65" d="M-17453.68-11126.888v-1.975a4.4,4.4,0,0,1,2.119.72,2.953,2.953,0,0,1,1.123,1.845v7.091h-2.133v-6.786a1.077,1.077,0,0,0-.4-.594A1.049,1.049,0,0,0-17453.68-11126.888Z" transform="translate(-303.761 -746)" fill="#777"/>
    <path id="패스_64" data-name="패스 64" d="M3.723,7.446a3.751,3.751,0,0,1-.75-.076,3.7,3.7,0,0,1-1.331-.56A3.734,3.734,0,0,1,.293,5.172a3.7,3.7,0,0,1-.217-.7,3.759,3.759,0,0,1,0-1.5,3.7,3.7,0,0,1,.56-1.331A3.734,3.734,0,0,1,2.274.293a3.7,3.7,0,0,1,.7-.217,3.759,3.759,0,0,1,1.5,0A3.7,3.7,0,0,1,5.8.636,3.734,3.734,0,0,1,7.154,2.274a3.7,3.7,0,0,1,.217.7,3.759,3.759,0,0,1,0,1.5A3.7,3.7,0,0,1,6.81,5.8,3.734,3.734,0,0,1,5.172,7.154a3.7,3.7,0,0,1-.7.217A3.751,3.751,0,0,1,3.723,7.446Zm0-5.585a1.853,1.853,0,0,0-1.041.318A1.867,1.867,0,0,0,2.008,3a1.859,1.859,0,0,0,.172,1.765A1.867,1.867,0,0,0,3,5.438a1.859,1.859,0,0,0,1.765-.172,1.867,1.867,0,0,0,.674-.819,1.859,1.859,0,0,0-.172-1.765,1.867,1.867,0,0,0-.819-.674A1.85,1.85,0,0,0,3.723,1.862Z" transform="translate(-17752.98 -11872.653)" fill="#777"/>
    <path id="합치기_4" data-name="합치기 4" d="M3.765,8.377a2.175,2.175,0,0,0,1.277-.4,2.375,2.375,0,0,0,.381-1.349s0,0,0,0l-.032.03a2.223,2.223,0,0,1-.477.335,2.423,2.423,0,0,1-.582.212,3.14,3.14,0,0,1-.695.074A3.662,3.662,0,0,1,2.9,7.2a3.616,3.616,0,0,1-1.3-.547,3.647,3.647,0,0,1-1.317-1.6,3.617,3.617,0,0,1-.212-.683,3.672,3.672,0,0,1,0-1.466A3.616,3.616,0,0,1,.621,1.6,3.647,3.647,0,0,1,2.221.286,3.617,3.617,0,0,1,2.9.074,3.662,3.662,0,0,1,3.636,0a3.14,3.14,0,0,1,.695.074,2.424,2.424,0,0,1,.582.212A2.223,2.223,0,0,1,5.39.62q.038.035.075.072l0-.486H7.424s0,6.583,0,7.018a2.842,2.842,0,0,1-.948,2.209,3.994,3.994,0,0,1-2.711.765C3.755,9.657,3.765,8.923,3.765,8.377Zm-.8-6.314a1.751,1.751,0,0,0-.555.369,1.737,1.737,0,0,0-.213.255,1.712,1.712,0,0,0-.161.292,1.7,1.7,0,0,0,0,1.34,1.712,1.712,0,0,0,.161.292,1.744,1.744,0,0,0,.472.465,1.761,1.761,0,0,0,2.212-.21A1.737,1.737,0,0,0,5.1,4.611a1.712,1.712,0,0,0,.161-.292,1.7,1.7,0,0,0,0-1.34A1.712,1.712,0,0,0,5.1,2.687a1.744,1.744,0,0,0-.472-.465,1.772,1.772,0,0,0-1.656-.159Z" transform="translate(-17744.504 -11872.653)" fill="#777"/>
  </g>
</svg>
