<svg xmlns="http://www.w3.org/2000/svg" width="23.004" height="25.675" viewBox="0 0 23.004 25.675">
  <g id="그룹_368" data-name="그룹 368" transform="translate(-1673.998 -1199.001)">
    <g id="합치기_1" data-name="합치기 1" transform="translate(-18621 -10739)" fill="none">
      <path d="M20298.664,11957.051A10.758,10.758,0,0,1,20295,11949a11.513,11.513,0,1,1,11.5,11,11.986,11.986,0,0,1-1.609-.107l-5.881,3.784Z" stroke="none"/>
      <path d="M 20299.919921875 11961.90234375 L 20304.3515625 11959.05078125 L 20304.662109375 11958.8515625 L 20305.02734375 11958.900390625 C 20305.5078125 11958.9658203125 20306.00390625 11958.9990234375 20306.501953125 11958.9990234375 C 20312.291015625 11958.9990234375 20317.001953125 11954.513671875 20317.001953125 11949 C 20317.001953125 11943.486328125 20312.291015625 11939.0009765625 20306.501953125 11939.0009765625 C 20300.7109375 11939.0009765625 20295.998046875 11943.486328125 20295.998046875 11949 C 20295.998046875 11950.4072265625 20296.298828125 11951.7666015625 20296.892578125 11953.04296875 C 20297.466796875 11954.2783203125 20298.287109375 11955.3759765625 20299.330078125 11956.3037109375 L 20299.640625 11956.58203125 L 20299.662109375 11956.998046875 L 20299.919921875 11961.90234375 M 20299.01171875 11963.67578125 L 20298.6640625 11957.05078125 C 20296.41015625 11955.04296875 20294.998046875 11952.1787109375 20294.998046875 11949 C 20294.998046875 11942.9267578125 20300.1484375 11938.0009765625 20306.501953125 11938.0009765625 C 20312.8515625 11938.0009765625 20318.001953125 11942.9267578125 20318.001953125 11949 C 20318.001953125 11955.0732421875 20312.8515625 11959.9990234375 20306.501953125 11959.9990234375 C 20305.95703125 11959.9990234375 20305.41796875 11959.962890625 20304.892578125 11959.8916015625 L 20299.01171875 11963.67578125 Z" stroke="none" fill="#707070"/>
    </g>
    <path id="패스_50" data-name="패스 50" d="M12.191-9.982a4.758,4.758,0,0,1-.714.177,5.663,5.663,0,0,1-.975.073,4.4,4.4,0,0,1-1.642-.3,3.629,3.629,0,0,1-1.277-.845,3.865,3.865,0,0,1-.829-1.314,4.681,4.681,0,0,1-.3-1.7,4.62,4.62,0,0,1,.3-1.684,3.865,3.865,0,0,1,.829-1.314,3.69,3.69,0,0,1,1.277-.85,4.33,4.33,0,0,1,1.642-.3,6.983,6.983,0,0,1,.907.057,5.007,5.007,0,0,1,.813.172q.146.052.151.125t.005.177l-.021.9a.3.3,0,0,1-.083.2A1.082,1.082,0,0,1,12-16.447a5.609,5.609,0,0,0-.839-.182,6.091,6.091,0,0,0-.766-.047,2.585,2.585,0,0,0-1.048.2,2.205,2.205,0,0,0-.787.573,2.568,2.568,0,0,0-.5.881,3.511,3.511,0,0,0-.172,1.126,3.169,3.169,0,0,0,.188,1.11,2.69,2.69,0,0,0,.521.876,2.6,2.6,0,0,0,.787.594,2.841,2.841,0,0,0,1,.276,3.256,3.256,0,0,0,.959-.036,5.254,5.254,0,0,0,.751-.193q.136-.052.177-.026t.052.13l.052.938a.2.2,0,0,1-.031.156A.447.447,0,0,1,12.191-9.982Zm6.037.1a.244.244,0,0,1-.162-.042.222.222,0,0,1-.047-.167V-13.4q0-1.324-.782-1.324a1.361,1.361,0,0,0-.719.172.984.984,0,0,0-.407.474v3.993a.208.208,0,0,1-.052.167.247.247,0,0,1-.156.042h-.959a.222.222,0,0,1-.156-.042.242.242,0,0,1-.042-.167v-8.185q0-.209.2-.209H15.9a.184.184,0,0,1,.209.209v2.815a2.4,2.4,0,0,1,.594-.37,1.542,1.542,0,0,1,.615-.141,1.9,1.9,0,0,1,1.559.615,3.034,3.034,0,0,1,.506,1.939v3.326a.222.222,0,0,1-.047.167.225.225,0,0,1-.151.042Z" transform="translate(1672.58 1223.389)" fill="#707070"/>
  </g>
</svg>
