<svg xmlns="http://www.w3.org/2000/svg" width="23.073" height="24.039" viewBox="0 0 23.073 24.039">
  <g id="그룹_372" data-name="그룹 372" transform="translate(-1674 -3656.168)">
    <g id="그룹_371" data-name="그룹 371" transform="translate(19891 14822.168)">
      <g id="그룹_369" data-name="그룹 369" transform="translate(-18217 -11166)">
        <path id="패스_79" data-name="패스 79" d="M2392.551-193.887a1.228,1.228,0,0,1-.524-.118,1.214,1.214,0,0,1-.7-1.108v-4.274a.1.1,0,0,0-.037-.08,10.149,10.149,0,0,1-3.97-7.94,10,10,0,0,1,3.4-7.459,12.055,12.055,0,0,1,8.135-3.059,12.055,12.055,0,0,1,8.135,3.059,10.005,10.005,0,0,1,3.4,7.459,10.005,10.005,0,0,1-3.4,7.459,12.056,12.056,0,0,1-8.135,3.059,12.754,12.754,0,0,1-1.994-.157.109.109,0,0,0-.087.022l-3.442,2.854A1.218,1.218,0,0,1,2392.551-193.887Zm6.3-22.756c-5.654,0-10.254,4.143-10.254,9.235a8.875,8.875,0,0,0,3.484,6.935,1.376,1.376,0,0,1,.523,1.085v4.151l3.347-2.775a1.392,1.392,0,0,1,1.108-.3,11.459,11.459,0,0,0,1.792.141c5.654,0,10.254-4.143,10.254-9.235S2404.507-216.643,2398.853-216.643Z" transform="translate(-2387.316 217.926)" fill="#787878"/>
      </g>
      <g id="그룹_370" data-name="그룹 370" transform="translate(-18212.262 -11159.247)">
        <path id="빼기_7" data-name="빼기 7" d="M3.7,7.654a3.574,3.574,0,0,1-1.438-.3A3.656,3.656,0,0,1,1.629,7a3.754,3.754,0,0,1-.547-.467,3.829,3.829,0,0,1-.451-.566A3.88,3.88,0,0,1,.075,4.6a4,4,0,0,1,0-1.542A3.88,3.88,0,0,1,.631,1.687a3.827,3.827,0,0,1,.451-.566A3.752,3.752,0,0,1,1.629.654,3.656,3.656,0,0,1,2.257.3,3.585,3.585,0,0,1,5.134.3a3.657,3.657,0,0,1,.628.353,3.754,3.754,0,0,1,.547.467,3.829,3.829,0,0,1,.451.566,3.871,3.871,0,0,1,.341.65,3.91,3.91,0,0,1,.178.549H6.386c-.02-.059-.042-.119-.066-.178a2.964,2.964,0,0,0-.261-.5,2.929,2.929,0,0,0-.345-.433A2.874,2.874,0,0,0,5.3,1.42a2.8,2.8,0,0,0-.48-.27,2.747,2.747,0,0,0-2.2,0,2.8,2.8,0,0,0-.48.27,2.872,2.872,0,0,0-.418.358,2.93,2.93,0,0,0-.345.433,2.964,2.964,0,0,0-.261.5,3.034,3.034,0,0,0,0,2.279,2.965,2.965,0,0,0,.261.5,2.932,2.932,0,0,0,.345.433,2.872,2.872,0,0,0,.418.357,2.8,2.8,0,0,0,.48.27,2.747,2.747,0,0,0,2.2,0,2.8,2.8,0,0,0,.48-.27,2.873,2.873,0,0,0,.418-.357,2.931,2.931,0,0,0,.345-.433,2.961,2.961,0,0,0,.261-.5c.029-.072.056-.146.08-.219h.878a3.91,3.91,0,0,1-.178.549,3.872,3.872,0,0,1-.341.65,3.831,3.831,0,0,1-.451.566A3.756,3.756,0,0,1,5.761,7a3.657,3.657,0,0,1-.628.353,3.574,3.574,0,0,1-1.438.3Z" transform="translate(0 0)" fill="#787878"/>
        <path id="패스_81" data-name="패스 81" d="M3.549,7.4V3.934h0c0-.007,0-.014,0-.021a.736.736,0,0,0-.1-.374,1.009,1.009,0,0,0-.284-.306,1.427,1.427,0,0,0-.421-.206,1.8,1.8,0,0,0-1.032,0,1.427,1.427,0,0,0-.421.206A1.009,1.009,0,0,0,1,3.538a.736.736,0,0,0-.1.374c0,.007,0,.014,0,.021h0V7.4H0V0H.9V2.625a2.537,2.537,0,0,1,.46-.19,3.036,3.036,0,0,1,1.731,0,2.4,2.4,0,0,1,.707.344,1.687,1.687,0,0,1,.477.51,1.224,1.224,0,0,1,.175.6h0V7.4Z" transform="translate(9.15 0.086)" fill="#787878"/>
      </g>
    </g>
  </g>
</svg>
